<svg xmlns="http://www.w3.org/2000/svg" xmlns:xlink="http://www.w3.org/1999/xlink" width="500" zoomAndPan="magnify" viewBox="0 0 375 374.999991" height="500" preserveAspectRatio="xMidYMid meet" version="1.0"><defs><g/><clipPath id="fd67f7301f"><rect x="0" width="338" y="0" height="327"/></clipPath></defs><g transform="matrix(1, 0, 0, 1, 21, 41)"><g clip-path="url(#fd67f7301f)"><g fill="#ffffff" fill-opacity="1"><g transform="translate(0.191993, 264.36715)"><g><path d="M 137.703125 -220.375 L 118.828125 -220.375 L 118.828125 -239.546875 L 137.703125 -239.546875 Z M 118.828125 -239.546875 L 99.65625 -239.546875 L 99.65625 -258.421875 L 118.828125 -258.421875 Z M 213.78125 -220.375 L 194.90625 -220.375 L 194.90625 -239.546875 L 213.78125 -239.546875 Z M 232.953125 -239.546875 L 213.78125 -239.546875 L 213.78125 -258.421875 L 232.953125 -258.421875 Z M 61.625 -220.375 L 42.75 -220.375 L 42.75 -144.296875 L 23.578125 -144.296875 L 23.578125 -239.546875 L 61.625 -239.546875 Z M 61.625 -125.4375 L 42.75 -125.4375 L 42.75 -144.296875 L 61.625 -144.296875 Z M 137.703125 -87.390625 L 80.796875 -87.390625 L 80.796875 -106.265625 L 137.703125 -106.265625 Z M 80.796875 -201.515625 L 61.625 -201.515625 L 61.625 -220.375 L 80.796875 -220.375 Z M 80.796875 -106.265625 L 61.625 -106.265625 L 61.625 -125.4375 L 80.796875 -125.4375 Z M 61.625 -11.3125 L 42.75 -11.3125 L 42.75 -68.21875 L 61.625 -68.21875 Z M 270.984375 7.859375 L 213.78125 7.859375 L 213.78125 -11.3125 L 270.984375 -11.3125 Z M 118.828125 7.859375 L 61.625 7.859375 L 61.625 -11.3125 L 118.828125 -11.3125 Z M 80.796875 -68.21875 L 61.625 -68.21875 L 61.625 -87.390625 L 80.796875 -87.390625 Z M 270.984375 -201.515625 L 251.8125 -201.515625 L 251.8125 -220.375 L 270.984375 -220.375 Z M 289.859375 -11.3125 L 270.984375 -11.3125 L 270.984375 -68.21875 L 289.859375 -68.21875 Z M 270.984375 -68.21875 L 251.8125 -68.21875 L 251.8125 -87.390625 L 270.984375 -87.390625 Z M 251.8125 -87.390625 L 194.90625 -87.390625 L 194.90625 -106.265625 L 251.8125 -106.265625 Z M 213.78125 -11.3125 L 194.90625 -11.3125 L 194.90625 -30.1875 L 213.78125 -30.1875 Z M 289.859375 -125.4375 L 270.984375 -125.4375 L 270.984375 -144.296875 L 289.859375 -144.296875 Z M 270.984375 -106.265625 L 251.8125 -106.265625 L 251.8125 -125.4375 L 270.984375 -125.4375 Z M 270.984375 -239.546875 L 309.03125 -239.546875 L 309.03125 -144.296875 L 289.859375 -144.296875 L 289.859375 -220.375 L 270.984375 -220.375 Z M 137.703125 -11.3125 L 118.828125 -11.3125 L 118.828125 -30.1875 L 137.703125 -30.1875 Z M 156.875 -30.1875 L 137.703125 -30.1875 L 137.703125 -49.359375 L 156.875 -49.359375 Z M 175.734375 -49.359375 L 156.875 -49.359375 L 156.875 -144.296875 L 175.734375 -144.296875 Z M 194.90625 -30.1875 L 175.734375 -30.1875 L 175.734375 -49.359375 L 194.90625 -49.359375 Z M 99.65625 -163.46875 L 80.796875 -163.46875 L 80.796875 -201.515625 L 137.703125 -201.515625 L 137.703125 -220.375 L 156.875 -220.375 L 156.875 -182.34375 L 137.703125 -182.34375 L 137.703125 -163.46875 L 156.875 -163.46875 L 156.875 -144.296875 L 99.65625 -144.296875 L 99.65625 -163.46875 L 118.828125 -163.46875 L 118.828125 -182.34375 L 99.65625 -182.34375 Z M 175.734375 -163.46875 L 156.875 -163.46875 L 156.875 -182.34375 L 175.734375 -182.34375 Z M 194.90625 -163.46875 L 194.90625 -182.34375 L 175.734375 -182.34375 L 175.734375 -220.375 L 194.90625 -220.375 L 194.90625 -201.515625 L 251.8125 -201.515625 L 251.8125 -163.46875 L 232.953125 -163.46875 L 232.953125 -182.34375 L 213.78125 -182.34375 L 213.78125 -163.46875 L 232.953125 -163.46875 L 232.953125 -144.296875 L 175.734375 -144.296875 L 175.734375 -163.46875 Z M 194.90625 -163.46875 "/></g></g></g></g></g></svg>